<svg width="124" height="57" viewBox="0 0 124 57" fill="none" xmlns="http://www.w3.org/2000/svg">
<path d="M42.4563 38.2638C41.3329 37.2727 40.3031 36.7771 39.3669 36.7771C38.7865 36.7771 38.2809 36.914 37.8503 37.1877C37.429 37.452 37.2183 37.8107 37.2183 38.2638C37.2183 38.8208 37.7239 39.3588 38.735 39.878C39.7554 40.3971 40.5371 40.8125 41.0801 41.124C41.6231 41.426 42.0678 41.8414 42.4142 42.37C42.7606 42.8892 42.9338 43.4886 42.9338 44.1682C42.9338 45.839 42.3112 47.1558 41.0661 48.1186C39.8303 49.0814 38.2481 49.5629 36.3196 49.5629C34.6719 49.5629 33.0617 49.0956 31.4889 48.1611L33.3425 44.947C34.5128 46.0608 35.6596 46.6177 36.783 46.6177C37.4945 46.6177 38.0796 46.4384 38.5384 46.0797C39.0065 45.721 39.2405 45.2349 39.2405 44.6213C39.2405 44.1116 38.8005 43.6254 37.9205 43.1629C37.0405 42.7004 36.2634 42.2803 35.5894 41.9027C34.9153 41.5157 34.4004 41.0485 34.0447 40.501C33.6983 39.944 33.5251 39.3305 33.5251 38.6603C33.5251 37.1877 34.1055 36.0172 35.2664 35.1488C36.4366 34.2709 37.869 33.832 39.5635 33.832C40.7244 33.832 42.2316 34.2285 44.0853 35.0214L42.4563 38.2638Z" fill="#9D9D9D"/>
<path d="M45.5598 43.6018C45.5598 40.8644 46.3883 38.5517 48.0453 36.6638C49.7024 34.7759 51.7994 33.832 54.3365 33.832C56.2744 33.832 57.7676 34.3417 58.8161 35.3612C59.8647 36.3712 60.3889 37.8107 60.3889 39.6797C60.3889 42.4738 59.5698 44.8195 57.9314 46.7169C56.2931 48.6142 54.1773 49.5629 51.5841 49.5629C49.6836 49.5629 48.2045 49.0531 47.1466 48.0337C46.0887 47.0048 45.5598 45.5275 45.5598 43.6018ZM49.2109 43.4319C49.2109 45.5936 50.133 46.6744 51.9773 46.6744C53.4377 46.6744 54.5939 45.9947 55.4459 44.6355C56.2978 43.2667 56.7238 41.6479 56.7238 39.7789C56.7238 37.7399 55.8016 36.7205 53.9573 36.7205C52.525 36.7205 51.3735 37.3954 50.5028 38.7452C49.6415 40.0856 49.2109 41.6479 49.2109 43.4319Z" fill="#9D9D9D"/>
<path d="M84.1212 39.3399L82.2816 49.2797H78.6867L80.4701 39.7081C80.5263 39.406 80.5543 39.0851 80.5543 38.7452C80.5543 37.4332 79.8662 36.7771 78.4901 36.7771C78.0032 36.7771 77.4743 36.947 76.9032 37.2868C76.3322 37.6267 75.9062 37.9948 75.6253 38.3913L73.6172 49.2797H70.0223L72.0163 38.5895C72.0351 38.4857 72.0444 38.3724 72.0444 38.2497C72.0444 37.268 71.3002 36.7771 69.8116 36.7771C69.3623 36.7771 68.852 36.947 68.281 37.2868C67.7192 37.6172 67.2699 37.9995 66.9329 38.4337L64.9247 49.2797H61.3438L63.38 38.3205C63.4268 38.0656 63.4502 37.6691 63.4502 37.1311C63.4502 36.1966 63.3192 35.2857 63.057 34.3984L66.4975 33.7895C66.6192 34.2709 66.7222 34.7287 66.8065 35.163C67.9393 34.2757 69.3529 33.832 71.0474 33.832C73.0321 33.832 74.4364 34.3748 75.2602 35.4603C76.4492 34.3748 77.9471 33.832 79.7539 33.832C82.7591 33.832 84.2616 35.2102 84.2616 37.9665C84.2616 38.3724 84.2148 38.8302 84.1212 39.3399Z" fill="#9D9D9D"/>
<path d="M89.64 42.6957C89.6213 42.9411 89.6119 43.1535 89.6119 43.3328C89.6119 44.39 89.9209 45.2018 90.5388 45.7682C91.166 46.3346 92.032 46.6177 93.1367 46.6177C93.7265 46.6177 94.4052 46.4573 95.1729 46.1363C95.9406 45.806 96.5444 45.4378 96.9844 45.0319L96.5772 48.7558C95.3882 49.2938 93.9371 49.5629 92.2239 49.5629C90.3702 49.5629 88.8677 48.9729 87.7162 47.793C86.5647 46.613 85.9889 44.9942 85.9889 42.9364C85.9889 40.3311 86.8174 38.1647 88.4745 36.4373C90.1409 34.7004 92.3175 33.832 95.0044 33.832C96.5865 33.832 97.8691 34.1718 98.8521 34.8515C99.8351 35.5217 100.327 36.4845 100.327 37.7399C100.327 39.4485 99.5917 40.7889 98.1219 41.7611C96.6614 42.7334 94.8593 43.2195 92.7154 43.2195C91.6669 43.2195 90.6417 43.0449 89.64 42.6957ZM90.3141 40.0196C90.9226 40.1989 91.5826 40.2886 92.2941 40.2886C93.5673 40.2886 94.6439 40.0951 95.5239 39.7081C96.404 39.3116 96.844 38.7452 96.844 38.009C96.844 37.1877 95.9546 36.7771 94.1758 36.7771C93.4737 36.7771 92.7575 37.0886 92.0273 37.7116C91.2971 38.3252 90.726 39.0945 90.3141 40.0196Z" fill="#9D9D9D"/>
<path d="M112.502 36.9612H108.359L106.842 43.6868C106.721 44.2248 106.66 44.6732 106.66 45.0319C106.66 46.0703 107.24 46.5894 108.401 46.5894C108.916 46.5894 109.759 46.344 110.929 45.8532V49.039C109.918 49.3882 108.542 49.5629 106.8 49.5629C105.658 49.5629 104.741 49.2042 104.048 48.4868C103.355 47.7694 103.009 46.8349 103.009 45.6832C103.009 45.3057 103.051 44.9328 103.135 44.5647L104.834 36.9612H103.093L103.697 34.1152H105.438L106.028 31.0143L110.044 29.5418L108.991 34.1152H113.105L112.502 36.9612Z" fill="#9D9D9D"/>
<path d="M31.8151 25.3241C30.9232 28.0799 28.013 29.5358 25.2252 28.6594C22.7628 27.8852 21.1531 24.8075 21.9129 22.3263C22.7671 19.5371 25.6826 17.9607 28.4325 18.8012C31.0578 19.6037 32.6345 22.6019 31.8151 25.3241Z" fill="#9D9D9D"/>
<ellipse cx="4.43801" cy="7.87635" rx="4.43801" ry="7.87635" transform="matrix(0.940817 0.338936 -0.331669 0.943403 30.1559 1.04222)" fill="#9D9D9D"/>
<ellipse cx="4.43801" cy="7.87635" rx="4.43801" ry="7.87635" transform="matrix(0.940817 0.338936 -0.331669 0.943403 20.4358 28.5898)" fill="#9D9D9D"/>
<ellipse cx="4.43492" cy="7.86059" rx="4.43492" ry="7.86059" transform="matrix(0.756982 -0.649849 0.646635 0.765877 9.02209 9.48051)" fill="#9D9D9D"/>
<ellipse cx="4.44683" cy="7.8494" rx="4.44683" ry="7.8494" transform="matrix(-0.179828 -0.986075 0.980995 -0.181523 5.70166 32.2023)" fill="#9D9D9D"/>
<ellipse cx="4.44683" cy="7.8494" rx="4.44683" ry="7.8494" transform="matrix(-0.179828 -0.986075 0.980995 -0.181523 34.215 26.9188)" fill="#9D9D9D"/>
</svg>
