<svg width="183" height="84" viewBox="0 0 183 84" fill="none" xmlns="http://www.w3.org/2000/svg">
<path d="M62.6572 56.3887C60.9993 54.9281 59.4795 54.1978 58.0978 54.1978C57.2412 54.1978 56.4951 54.3995 55.8596 54.8029C55.2379 55.1924 54.927 55.721 54.927 56.3887C54.927 57.2095 55.6731 58.0024 57.1652 58.7675C58.6712 59.5326 59.8249 60.1446 60.6262 60.6037C61.4276 61.0488 62.0838 61.6609 62.595 62.4399C63.1062 63.205 63.3618 64.0883 63.3618 65.0899C63.3618 67.5521 62.4431 69.4927 60.6055 70.9116C58.7817 72.3305 56.4468 73.0399 53.6006 73.0399C51.169 73.0399 48.7926 72.3513 46.4714 70.9742L49.2071 66.2376C50.9341 67.879 52.6266 68.6998 54.2845 68.6998C55.3346 68.6998 56.1981 68.4355 56.8751 67.9069C57.5659 67.3782 57.9113 66.6618 57.9113 65.7576C57.9113 65.0065 57.2619 64.29 55.9632 63.6084C54.6645 62.9268 53.5177 62.3078 52.523 61.7513C51.5282 61.181 50.7683 60.4924 50.2433 59.6856C49.7321 58.8648 49.4765 57.9606 49.4765 56.973C49.4765 54.8029 50.3331 53.078 52.0463 51.7982C53.7733 50.5045 55.8872 49.8576 58.388 49.8576C60.1012 49.8576 62.3256 50.4419 65.0612 51.6104L62.6572 56.3887Z" fill="white"/>
<path d="M67.2373 64.2553C67.2373 60.2211 68.46 56.813 70.9055 54.0308C73.351 51.2487 76.4459 49.8576 80.1901 49.8576C83.05 49.8576 85.2537 50.6088 86.8012 52.1112C88.3486 53.5996 89.1223 55.721 89.1223 58.4753C89.1223 62.5929 87.9134 66.0498 85.4955 68.8458C83.0777 71.6419 79.9552 73.0399 76.1281 73.0399C73.3234 73.0399 71.1404 72.2887 69.5792 70.7864C68.0179 69.2701 67.2373 67.0931 67.2373 64.2553ZM72.6257 64.0049C72.6257 67.1904 73.9866 68.7832 76.7084 68.7832C78.8637 68.7832 80.57 67.7817 81.8273 65.7785C83.0846 63.7614 83.7132 61.3757 83.7132 58.6214C83.7132 55.6167 82.3523 54.1143 79.6305 54.1143C77.5166 54.1143 75.8172 55.1089 74.5323 57.0982C73.2612 59.0735 72.6257 61.3757 72.6257 64.0049Z" fill="white"/>
<path d="M124.147 57.9746L121.432 72.6226H116.126L118.758 58.5171C118.841 58.0719 118.883 57.599 118.883 57.0982C118.883 55.1646 117.867 54.1978 115.836 54.1978C115.118 54.1978 114.337 54.4482 113.494 54.949C112.651 55.4497 112.023 55.9923 111.608 56.5765L108.645 72.6226H103.339L106.282 56.8686C106.31 56.7156 106.324 56.5487 106.324 56.3679C106.324 54.9211 105.225 54.1978 103.028 54.1978C102.365 54.1978 101.612 54.4482 100.769 54.949C99.9404 55.4358 99.2773 55.9992 98.7799 56.6391L95.8163 72.6226H90.5315L93.5366 56.4722C93.6057 56.0966 93.6402 55.5123 93.6402 54.7194C93.6402 53.3423 93.4468 51.9999 93.0599 50.6923L98.1374 49.795C98.317 50.5045 98.469 51.1791 98.5933 51.819C100.265 50.5114 102.351 49.8576 104.852 49.8576C107.781 49.8576 109.854 50.6575 111.069 52.2572C112.824 50.6575 115.035 49.8576 117.701 49.8576C122.136 49.8576 124.354 51.8886 124.354 55.9505C124.354 56.5487 124.285 57.2234 124.147 57.9746Z" fill="white"/>
<path d="M132.291 62.9198C132.264 63.2815 132.25 63.5945 132.25 63.8588C132.25 65.4168 132.706 66.6131 133.618 67.4478C134.543 68.2824 135.821 68.6998 137.452 68.6998C138.322 68.6998 139.324 68.4633 140.457 67.9903C141.59 67.5034 142.481 66.9609 143.13 66.3628L142.529 71.8506C140.774 72.6435 138.633 73.0399 136.105 73.0399C133.369 73.0399 131.151 72.1705 129.452 70.4317C127.753 68.6928 126.903 66.3071 126.903 63.2746C126.903 59.4352 128.126 56.2427 130.571 53.697C133.03 51.1374 136.243 49.8576 140.208 49.8576C142.543 49.8576 144.436 50.3584 145.886 51.36C147.337 52.3476 148.063 53.7665 148.063 55.6167C148.063 58.1345 146.978 60.1099 144.809 61.5427C142.653 62.9755 139.994 63.6919 136.83 63.6919C135.282 63.6919 133.77 63.4345 132.291 62.9198ZM133.286 58.9761C134.184 59.2404 135.158 59.3726 136.208 59.3726C138.087 59.3726 139.676 59.0874 140.975 58.5171C142.274 57.9328 142.923 57.0982 142.923 56.0131C142.923 54.8029 141.61 54.1978 138.985 54.1978C137.949 54.1978 136.892 54.6568 135.814 55.5749C134.737 56.4791 133.894 57.6129 133.286 58.9761Z" fill="white"/>
<path d="M166.031 54.469H159.917L157.679 64.3805C157.499 65.1734 157.409 65.8341 157.409 66.3628C157.409 67.8929 158.266 68.658 159.979 68.658C160.739 68.658 161.982 68.2964 163.709 67.573V72.2679C162.217 72.7826 160.186 73.0399 157.616 73.0399C155.931 73.0399 154.577 72.5113 153.555 71.4541C152.532 70.3969 152.021 69.0197 152.021 67.3226C152.021 66.7662 152.083 66.2167 152.207 65.6742L154.715 54.469H152.145L153.036 50.2749H155.606L156.477 45.7052L162.404 43.5352L160.849 50.2749H166.922L166.031 54.469Z" fill="white"/>
<path d="M46.9504 37.3179C45.6332 41.3805 41.3386 43.5281 37.2258 42.2377C33.593 41.0979 31.2196 36.562 32.3419 32.9041C33.6036 28.7923 37.9061 26.467 41.963 27.7046C45.836 28.886 48.1608 33.3048 46.9504 37.3179Z" fill="#00A86B"/>
<ellipse cx="6.54467" cy="11.6126" rx="6.54467" ry="11.6126" transform="matrix(0.941036 0.338321 -0.332274 0.943188 44.5107 1.53564)" fill="#DC143C"/>
<ellipse cx="6.54467" cy="11.6126" rx="6.54467" ry="11.6126" transform="matrix(0.941036 0.338321 -0.332274 0.943188 30.1658 42.1323)" fill="#DC143C"/>
<ellipse cx="6.54087" cy="11.5932" rx="6.54087" ry="11.5932" transform="matrix(0.757727 -0.649583 0.646909 0.765129 13.3149 13.9741)" fill="white"/>
<ellipse cx="6.55547" cy="11.5795" rx="6.55547" ry="11.5795" transform="matrix(-0.179977 -0.98565 0.981423 -0.181385 8.41382 47.4561)" fill="#FFBF00"/>
<ellipse cx="6.55547" cy="11.5795" rx="6.55547" ry="11.5795" transform="matrix(-0.179977 -0.98565 0.981423 -0.181385 50.494 39.6699)" fill="#FFBF00"/>
</svg>
